<svg xmlns="http://www.w3.org/2000/svg" viewBox="0 0 1024 300">
  <style type="text/css">
    .banner {
      fill: #fff;
    }

    .box {
      stroke: #dadada;
    }

    .text {
      fill: #212121;
    }

    @media (prefers-color-scheme: dark) {
      .banner {
        fill: #0e1116;
      }

      .box {
        stroke: #30363c;
      }

      .text {
        fill: #fff;
      }
    }
  </style>
  <defs>
    <linearGradient id="a" x1="100%" x2=".8%" y1="0%" y2="99.2%">
      <stop offset="0%" stop-color="#BF048D"/>
      <stop offset="100%" stop-color="#4A38B0"/>
    </linearGradient>
  </defs>
  <g class="banner" fill-rule="evenodd">
    <path class="box" d="M.5.5h1023v299H.5z"/>
    <g class="text" fill-rule="nonzero">
      <path d="M263.8 138.5c0-19-28.2-14.8-28.2-28.8 0-6.2 6-9 12.8-9 2.1 0 4.5.2 8.4 1l.4 10h4.2l.6-12.9c-3.7-1.9-9-2.8-13.6-2.8-10.4 0-18 5-18 14 0 17.6 28.1 13.6 28.1 28.8 0 7-5.7 10.5-13.7 10.5-3.2 0-6.3-.5-10.6-2.1l-.6-9.9h-4.2l-.6 12c3.6 2.8 9 4.7 15.8 4.7 11.5 0 19.2-6 19.2-15.5Zm24.7 15.5c11 0 17.2-7.5 17.2-20.5 0-13.3-6.7-21.5-17.2-21.5-11.2 0-17.3 8-17.3 21 0 13.4 6.7 21 17.3 21Zm0-3.9c-7.5 0-12.4-6.6-12.4-17 0-10.2 5-17.1 12.4-17.1s12.3 7 12.3 17.5c0 10.1-5 16.6-12.3 16.6Zm55 1.7-1-3.8c-2.5.8-6.1 1.6-9.2 1.6-9.2 0-14-6.7-14-16.8 0-9.7 4.3-16.7 13.3-16.7 1.9 0 3.7.3 5.8.9l.3 9.4h4l.7-11.7a21.6 21.6 0 0 0-10.8-2.7c-11.4 0-18.3 8.1-18.3 21.2 0 13.2 6.8 20.8 18.4 20.8 4.2 0 8-1 10.8-2.2Zm15.8-49c2.2 0 3.6-1.6 3.6-3.5s-1.4-3.5-3.6-3.5a3.4 3.4 0 0 0-3.6 3.5c0 2 1.4 3.5 3.6 3.5Zm9.6 46.6-7.2-.6V112l-12 1.6v3.6h7.2v31.6l-7.2.6v3.6h19.2v-3.6Zm40.8 0-7.2-.6v-21.5c0-9.3-1.9-15.3-12.3-15.3-5 0-9.4 1.5-14.2 3.2l.5 10.1h3.9l.4-7.4a61.3 61.3 0 0 1 9.2-1.8c6.9 0 7.8 4.6 7.8 12.1v4.2h-4.4c-13 .4-19.2 3.7-19.2 11.2 0 6.4 4.4 10.4 11 10.4 4.2 0 9-2.1 12.7-4.8l.7 3.8h11v-3.6Zm-23.4 0c-4.3 0-7.2-1.8-7.2-6 0-4 2.9-6.4 11.5-6.8h7.2v9.2c-3.2 2-8 3.7-11.5 3.7ZM432.8 149.4l-7.2-.7V92l-12.2 2.2v3.4h7.4v51.1l-7.2.7v3.6h19.2zM470.4 97h-13.3v3.7l7.8.7-4.7 47.2-7.5.6v3.8H472v-3.8l-7-.6 3.6-43.6 17.8 45.6h5l17.5-45.2 4 43.2-6.7.6v3.8h19.2v-3.8l-7.4-.6-4.9-47.3 7.8-.6V97h-13.2L489 145zM561 151.6l-1-3.9a29 29 0 0 1-9.8 2c-7.7 0-14.2-4.4-14.5-16 7.2.1 20.3 0 25.5-1.7 2-11.2-2.5-20-13-20-10.1 0-17.5 8.3-17.5 21 0 12.5 6.8 21 18.7 21 3 0 7.3-.5 11.6-2.4Zm-13.1-35.5c7.6 0 9.2 7 8.8 13.2l-20.8.4c1-9.1 5.9-13.6 12-13.6Zm61 33.3-7.1-.6V92l-12.2 2.2v3.4h7.4v18.5c-2.4-2-5.5-4-10-4-9.9 0-17.1 8.7-17.1 21.4 0 15.1 9 20.5 15.8 20.5 4.6 0 9.4-2.8 12-6l.5 5H609v-3.6Zm-34-16c0-11 5.3-16.8 12-16.8 3.4 0 7.6 1.6 10 2.9v25.2a15 15 0 0 1-10.3 4.7c-6.8 0-11.8-4.8-11.8-16Zm48-30.6c2 0 3.5-1.6 3.5-3.5s-1.4-3.5-3.6-3.5a3.4 3.4 0 0 0-3.6 3.5c0 2 1.4 3.5 3.6 3.5Zm9.5 46.6-7.2-.6V112l-12 1.6v3.6h7.2v31.6l-7.2.6v3.6h19.2v-3.6Zm40.8 0-7.2-.6v-21.5c0-9.3-1.9-15.3-12.3-15.3-5 0-9.4 1.5-14.2 3.2l.5 10.1h3.9l.4-7.4a61.3 61.3 0 0 1 9.2-1.8c6.9 0 7.7 4.6 7.7 12.1v4.2h-4.4c-12.8.4-19 3.7-19 11.2 0 6.4 4.2 10.4 10.9 10.4 4.2 0 9-2.1 12.7-4.8l.6 3.8h11.2v-3.6Zm-23.4 0c-4.3 0-7.2-1.8-7.2-6 0-4 2.9-6.4 11.5-6.8H661.2v9.2c-3.2 2-7.9 3.7-11.4 3.7Zm88.8.8-1.4-4c-4.5 2.2-10.1 3-14.2 3-9.7 0-22-6.3-22-24.3 0-17.7 12.3-24.1 22-24.1 3.6 0 6.6.5 9.8 1.5l.6 11.7h4.3l.8-14.3A34 34 0 0 0 723 96c-14 0-27.1 9.8-27.1 29 0 19.3 13 29 27.1 29 4.8 0 10.5-1 15.6-3.8Zm23.9 3.8c11 0 17.2-7.5 17.2-20.5 0-13.3-6.7-21.5-17.2-21.5-11.2 0-17.3 8-17.3 21 0 13.4 6.7 21 17.3 21Zm0-3.9c-7.5 0-12.4-6.6-12.4-17 0-10.2 5-17.1 12.4-17.1s12.3 7 12.3 17.5c0 10.1-5 16.6-12.3 16.6Zm67.8-.7-7.2-.6V124c0-8.4-4.3-12-11.6-12-5 0-9.4 2-13.4 5v-5l-11.8 1.6v3.6h7.2v31.6l-7.2.6v3.6h18.4v-3.6l-6.4-.6v-28.6a27 27 0 0 1 12-3.6c6.5 0 8 3.5 8 9V153h12v-3.6Zm48.2 0-7.2-.6V124c0-8.4-4.3-12-11.6-12-5 0-9.5 2-13.5 5v-5l-11.7 1.6v3.6h7.2v31.6l-7.2.6v3.6h18.4v-3.6l-6.4-.6v-28.6a27 27 0 0 1 12-3.6c6.5 0 8 3.5 8 9V153h12v-3.6Zm35.2 2.2-1-3.9a29 29 0 0 1-9.8 2c-7.7 0-14.2-4.4-14.5-16 7.2.1 20.3 0 25.5-1.7 2-11.2-2.5-20-13-20-10.1 0-17.5 8.3-17.5 21 0 12.5 6.8 21 18.7 21 3 0 7.3-.5 11.6-2.4Zm-13.1-35.5c7.6 0 9.2 7 8.8 13.2l-20.8.4c1-9.1 5.9-13.6 12-13.6Zm51.2 35.7-1-3.8c-2.6.8-6.2 1.6-9.3 1.6-9.2 0-14-6.7-14-16.8 0-9.7 4.3-16.7 13.4-16.7 1.8 0 3.7.3 5.7.9l.4 9.4h3.9l.8-11.7a21.6 21.6 0 0 0-10.8-2.7c-11.5 0-18.3 8.1-18.3 21.2 0 13.2 6.8 20.8 18.4 20.8 4.1 0 8-1 10.8-2.2Zm30.5.8-.4-4c-2.1.5-4.5.8-6.5.8-6.2 0-7-3.8-7-7.5v-24.6H981v-4.5l-12.5.4v-12.4l-4 1-.8 11.5-6.9.3v3.7h6.8V141c0 9.9 4.7 13 11 13 2.8 0 5.4-.5 7.8-1.3Z"/>
    </g>
    <g fill-rule="nonzero">
      <path fill="url(#a)" d="M149.4 31.7c12.3 23 2.9 58.3-14.2 83.5-17 25.3-41.7 40.4-65.3 39.8-23.8-.6-46.6-17-59.1-39.5C-1.6 92.9-4 64.3 7.3 41.8 18.7 19.4 43.7 3 73.3.4c29.6-2.8 63.7 8.1 76.1 31.3Z" transform="matrix(-1 0 0 1 196 47.5)"/>
      <path fill="#FFF" d="m123.9 115.7 1.8 7.2-7.2 2-1.8-7.2 7.2-2Zm30.5-28.4H88.1a9.6 9.6 0 0 0-9.6 9.6v47c0 5.2 4.2 9.5 9.6 9.5h9v15.8c0 1.6 1.8 2.4 3 1.6l25.6-17.4h28.7c5.2 0 9.6-4.1 9.6-9.5v-47c0-5.4-4.4-9.6-9.6-9.6Zm-14.7 41-3.2.8.8 3.2c.6 2.4-.8 4.6-3 5.2l-1 .2c-2 0-3.6-1.2-4.2-3.2l-.8-3.2-7.2 1.8.8 3.2c.6 2.4-.8 4.6-3 5.2l-1 .2c-2 0-3.6-1.2-4.2-3.2l-1.2-3.2-3.2 1H108c-2 0-3.6-1.2-4.2-3.2-.6-2.4.8-4.6 3-5.2l3.2-.8-1.8-7.2-3.2.8-1 .2c-2 0-3.6-1.2-4.2-3.2-.6-2.4.8-4.6 3-5.2l3.2-.8-.8-3.2a4.2 4.2 0 1 1 8.2-2.2l.8 3.2 7.2-1.8-.8-3.2a4.2 4.2 0 1 1 8.2-2.2l.8 3.2 3.2-.8c2.4-.6 4.6.8 5.2 3 .6 2.2-.8 4.6-3 5.2l-3.2.8 1.8 7.2 3.2-.8c2.4-.6 4.5.8 5.1 3 1.3 2.2-.1 4.6-2.3 5.2Z"/>
    </g>
    <g fill-rule="nonzero">
      <path class="text" d="M468 239.7c4.7 0 7.6-2 7.6-5.3 0-2.6-1.9-4.2-5-4.3l-3.3-.1c-.7 0-1.2-.3-1.3-.9l-.1-.3c0-.3.1-.5.3-.8.6.2 1.3.3 2 .3 3.5 0 6.3-1.7 6.3-5 0-.8-.2-1.5-.5-2h2v-3.1l-4.3.7c-1-.5-2.1-.7-3.4-.7-3.4 0-6.2 1.7-6.2 5 0 1.9.8 3.2 2 4-.9.7-1.6 1.5-1.6 2.7 0 1 .5 1.9 1.4 2.5-1.5.9-2.5 2-2.5 3.3 0 2.3 2.2 4 6.6 4Zm.3-14.2c-1.3 0-2.1-.8-2.1-2.2 0-1.4.8-2.3 2.1-2.3s2.2.9 2.2 2.3-.9 2.2-2.2 2.2ZM468 237c-1.8 0-2.8-.8-2.8-2 0-.7.3-1.3.7-1.8l1.2.1 2 .1h.7c1.1.2 1.6.6 1.6 1.6 0 1.2-1.4 2-3.4 2Zm17-4c2 0 4-.6 5.2-1.2l-.5-2.8c-1.1.4-2.7.7-4 .7-1.7 0-3.3-.7-3.7-3.1 2.6.1 7 0 8.5-.4.8-4-.8-8-5.7-8-4 0-7.1 2.7-7.1 7.4 0 4.4 2.9 7.3 7.3 7.3Zm-3-8.9c.3-2.2 1.6-3 2.7-3 1.6 0 2.1 1.5 2 3H482Zm19.6 8.5 2.6-9.5 2.8 9.5h4.5l3.5-11.2 1.7-.2v-2.7H510v2.7l1.4.2-2 7.3-2.8-10.2h-4l-2.9 10-1.9-7 1.5-.3v-2.7h-7.1v2.7l1.5.2 3.6 11.2h4.4Zm23.8.3c2 0 4-.5 5.3-1.1l-.6-2.8c-1 .4-2.6.7-3.9.7-1.8 0-3.3-.7-3.7-3.1 2.5.1 6.8 0 8.4-.4.8-4-.8-8-5.7-8-4 0-7.1 2.7-7.1 7.4 0 4.4 2.9 7.3 7.3 7.3Zm-3-8.8c.3-2.2 1.6-3 2.7-3 1.6 0 2.2 1.5 2 3h-4.7Zm20.1 8.5V230l-3-.3v-6.8c1.3-.4 2.8-.6 4.7-.6l.1-4c-1.8 0-3.7.7-5 2.3v-2.3l-6.2 1.1v2.8h2.1v7.6l-2 .2v2.7h9.3Zm10.4 0v-2.8l-.6-.1v-3.9l3.8 5.2v1.6h6.4V230l-2.3-.3-3.6-4.7 2.6-3.4 2.3-.3v-2.7H557l-4.5 6.9V212l-6.5 1.2v2.7h2.1v13.8l-2 .2v2.7h7ZM520 262c1.4 0 2.7-.7 4.2-2.3v2h5.1l.4-2.2-2.2-.2 3.2-18.2-5.7 1-.4 2h2.2l-.6 3.8c-.7-.3-1.5-.4-2.3-.4-5 0-8 4.8-8 9.3 0 3.7 2 5.2 4 5.2Zm1.3-2.8c-1 0-2-.6-2-3 0-2.8 1.4-6.1 4.8-6.1.5 0 1.1 0 1.6.3l-1.1 6.8c-1.4 1.4-2.4 2-3.3 2Zm17.6 2.8c1.2 0 2.5-.4 3.9-.9l-.2-2.3c-1 .3-2.2.6-3.1.6h-.3c-2 0-3.1-1-3.4-3l-.1-.3a52 52 0 0 0 8.2-1.8c.3-.6.4-1.1.4-1.7v-.7c-.2-2.4-1.8-4.3-4.4-4.4h-.8c-3.8.2-6.8 3.7-6.8 8.3 0 3.6 2 6 5.8 6.2h.8Zm-3.3-8c.4-2.5 2.1-4.2 3.8-4.2 1.4 0 2 1.4 1.8 3-1.8.5-3.7 1-5.6 1.2Zm18.3 7.7 6.5-11.6 1.5-.1.4-2.2H556l-.4 2.2 1.6.1-4.5 8.7-1.5-8.6 1.7-.2.4-2.2h-6.6l-.4 2.2 1.6.1 2.4 11.6h3.6Z"/>
      <path fill="#550D77" d="M470.1 245.5v8.7h39.2v3.4h-42.5v-12.1h3.3Z"/>
    </g>
  </g>
</svg>
