<svg xmlns="http://www.w3.org/2000/svg" viewBox="0 0 24 24"><path d="M12.7288506,8.19954266 L13.2334325,10.2182309 L11.2147443,10.7787473 L10.7101624,8.76005908 L12.7288506,8.19954266 Z M21.3082755,0.236579349 L2.69148416,0.236579349 C1.2336428,0.236579349 0,1.41440712 0,2.92812289 L0,16.105671 C0,17.5635123 1.17776839,18.7971551 2.69148416,18.7971551 L5.2147443,18.7971551 L5.2147443,23.226854 C5.2147443,23.6755015 5.71932624,23.8996299 6.05570418,23.6755015 L13.2332623,18.7971051 L21.3085158,18.7974963 C22.7663572,18.7974963 24,17.6197279 24,16.1060121 L24,2.92846404 C24,1.41434774 22.7663572,0.236579349 21.3085158,0.236579349 L21.3082755,0.236579349 Z M17.1586496,11.7319466 L16.2613647,11.9560751 L16.4854932,12.85336 C16.6536872,13.5261359 16.2613647,14.1429773 15.6445333,14.3112014 C15.5322738,14.3112014 15.4204048,14.3671348 15.3640798,14.3671348 C14.8031729,14.3671348 14.354936,14.0307469 14.1863114,13.46985 L13.962183,12.5725651 L11.9434948,13.077147 L12.1676232,13.9744319 C12.3358172,14.6472078 11.9434948,15.2640492 11.3266633,15.4322732 C11.2144038,15.4322732 11.1025349,15.4882067 11.0462099,15.4882067 C10.4853029,15.4882067 10.037066,15.1518188 9.86844147,14.5909218 L9.53244404,13.6948085 L8.63554967,13.975262 L8.2987712,13.975262 C7.73786426,13.975262 7.28962735,13.638874 7.1210028,13.0779771 C6.95280882,12.4052012 7.34513127,11.7883598 7.96196268,11.6201358 L8.85924756,11.3960073 L8.35466563,9.37731907 L7.45738075,9.60144753 C7.34512125,9.60144753 7.23325228,9.65738102 7.17692727,9.65738102 C6.61602033,9.65738102 6.16778343,9.32099306 5.99915888,8.76009613 C5.8309649,8.08732022 6.22328734,7.47047879 6.84011876,7.30225477 L7.73740364,7.07812631 L7.51327518,6.18084142 C7.3450812,5.50806551 7.73740364,4.89122408 8.35423506,4.72300007 C9.02701097,4.55480609 9.6438524,4.94712853 9.81207642,5.56395994 L10.0362049,6.46124483 L12.0548931,5.95666289 L11.8307646,5.05937801 C11.6625707,4.3866021 12.0548931,3.76976067 12.6717245,3.60153665 C13.3445004,3.43334267 13.9613419,3.82566511 14.1295659,4.44249653 L14.3536943,5.33978141 L15.2509792,5.11565295 C15.9237551,4.94745897 16.5405966,5.33978141 16.7088206,5.95661283 C16.8770146,6.57345425 16.4846921,7.24623017 15.8678607,7.41445419 L14.9705758,7.63858265 L15.4751578,9.65727087 L16.3724426,9.43314241 C17.0452185,9.26494843 17.66206,9.65727087 17.830284,10.2741023 C18.168234,10.8909437 17.7755231,11.5637196 17.1586897,11.7319436 L17.1586496,11.7319466 Z"/></svg>
