<svg xmlns="http://www.w3.org/2000/svg" width="110" height="110" viewBox="0 0 110 110"><defs><linearGradient id="a" x1="100%" x2=".792%" y1="0%" y2="99.208%"><stop offset="0%" stop-color="#BF048D"/><stop offset="100%" stop-color="#4A38B0"/></linearGradient></defs><g fill="none" fill-rule="evenodd"><path fill="url(#a)" fill-rule="nonzero" d="M106.044346,22.4847416 C114.748547,38.8155278 108.061173,63.8634229 95.9602121,81.7390133 C83.8592509,99.7249468 66.3447017,110.428232 49.573194,109.98686 C32.6955376,109.545487 16.5609226,97.9594564 7.64442489,81.9596996 C-1.16592408,65.9599428 -2.8643046,45.6568031 5.20300288,29.6570463 C13.2703104,13.7676327 30.9971571,2.18160189 52.014616,0.305768334 C73.032075,-1.68040837 97.2339975,6.04361215 106.044346,22.4847416 Z" transform="matrix(-1 0 0 1 110 0)"/><path fill="#FFF" fill-rule="nonzero" d="M58.8432823,48.3885435 L60.1193833,53.4938591 L55.0140677,54.9114198 L53.7379667,49.8061043 L58.8432823,48.3885435 Z M80.5408734,28.25 L33.4585188,28.25 C29.7715997,28.25 26.6516846,31.2287574 26.6516846,35.0569844 L26.6516846,68.3833498 C26.6516846,72.070269 29.6302918,75.190184 33.4585188,75.190184 L39.83991,75.190184 L39.83991,86.3930089 C39.83991,87.5276501 41.116011,88.0944769 41.9667196,87.5276501 L60.1189528,75.1900574 L80.5414812,75.1910468 C84.2284003,75.1910468 87.3483154,72.2124396 87.3483154,68.3842126 L87.3483154,35.0578471 C87.3483154,31.2286072 84.2284003,28.25 80.5414812,28.25 L80.5408734,28.25 Z M70.0463604,57.322086 L67.7771034,57.8889128 L68.3439301,60.1581699 C68.7692971,61.8596378 67.7771034,63.419646 66.2171205,63.845089 C65.9332133,63.845089 65.6502937,63.9865462 65.5078463,63.9865462 C64.0892979,63.9865462 62.955695,63.1358122 62.5292391,61.7172892 L61.9624123,59.4480321 L56.8570967,60.7241331 L57.4239235,62.9933901 C57.8492905,64.6948581 56.8570967,66.2548663 55.2971139,66.6803093 C55.0132067,66.6803093 54.7302871,66.8217665 54.5878397,66.8217665 C53.1692913,66.8217665 52.0356884,65.9710325 51.6092325,64.5525094 L50.7594861,62.2862153 L48.4912167,62.9954895 L47.6394951,62.9954895 C46.2209467,62.9954895 45.0873438,62.1447555 44.6608879,60.7262324 C44.2355209,59.0247645 45.2277146,57.4647563 46.7876975,57.0393133 L49.0569545,56.4724866 L47.7808536,51.367171 L45.5115965,51.9339978 C45.2276893,51.9339978 44.9447697,52.075455 44.8023223,52.075455 C43.3837739,52.075455 42.250171,51.224721 41.8237151,49.806198 C41.3983481,48.10473 42.3905419,46.5447218 43.9505247,46.1192789 L46.2197818,45.5524521 L45.652955,43.283195 C45.227588,41.5817271 46.2197818,40.0217189 47.7797646,39.5962759 C49.4812326,39.1709089 51.0412408,40.1631027 51.4666837,41.7230855 L52.0335105,43.9923426 L57.1388261,42.7162416 L56.5719993,40.4469846 C56.1466323,38.7455166 57.1388261,37.1855084 58.6988089,36.7600655 C60.4002769,36.3346985 61.9602851,37.3268922 62.3857281,38.8868751 L62.9525548,41.1561321 L65.2218119,40.5893054 C66.9232799,40.1639384 68.483288,41.1561321 68.908731,42.716115 C69.334098,44.2761232 68.3419042,45.9775912 66.7819214,46.4030341 L64.5126643,46.9698609 L65.7887653,52.0751765 L68.0580223,51.5083497 C69.7594903,51.0829827 71.3194985,52.0751765 71.7449415,53.6351593 C72.599626,55.1951675 71.6064496,56.8966355 70.0464617,57.3220784 L70.0463604,57.322086 Z"/></g></svg>